<?xml version="1.0" encoding="UTF-8" standalone="no"?>
<svg
   fill="none"
   stroke="#000"
   stroke-width="2"
   viewBox="0 0 347 347"
   version="1.1"
   id="svg1"
   sodipodi:docname="27,644,437.svg"
   xml:space="preserve"
   inkscape:version="1.4.2 (f4327f4, 2025-05-13)"
   xmlns:inkscape="http://www.inkscape.org/namespaces/inkscape"
   xmlns:sodipodi="http://sodipodi.sourceforge.net/DTD/sodipodi-0.dtd"
   xmlns="http://www.w3.org/2000/svg"
   xmlns:svg="http://www.w3.org/2000/svg"><defs
     id="defs1" /><sodipodi:namedview
     id="namedview1"
     pagecolor="#ffffff"
     bordercolor="#000000"
     borderopacity="0.25"
     inkscape:showpageshadow="2"
     inkscape:pageopacity="0.0"
     inkscape:pagecheckerboard="0"
     inkscape:deskcolor="#d1d1d1"
     inkscape:zoom="2.3948127"
     inkscape:cx="167.02768"
     inkscape:cy="233.21239"
     inkscape:window-width="1920"
     inkscape:window-height="1027"
     inkscape:window-x="-8"
     inkscape:window-y="-8"
     inkscape:window-maximized="1"
     inkscape:current-layer="svg1" /><rect
     width="337"
     height="337"
     x="5"
     y="5"
     id="rect1"
     style="fill:#3e3e3e;fill-opacity:1" /><path
     sodipodi:type="star"
     style="opacity:1;fill:#000000;stroke-width:2.351;stroke-linejoin:round;stroke-miterlimit:10.4;fill-opacity:1"
     id="path1"
     inkscape:flatsided="true"
     sodipodi:sides="13"
     sodipodi:cx="174.96149"
     sodipodi:cy="175.79663"
     sodipodi:r1="131.57738"
     sodipodi:r2="127.75397"
     sodipodi:arg1="1.7980709"
     sodipodi:arg2="2.0397319"
     inkscape:rounded="0"
     inkscape:randomized="0"
     d="M 145.31407,303.99038 89.135401,275.52872 52.61845,224.21964 44.128814,161.81743 65.611367,102.61769 112.14471,60.182361 l 60.92392,-15.949492 61.35754,14.190181 47.7349,41.079053 23.17677,58.557207 -6.69088,62.62062 -35.02574,52.33839 -55.33661,30.06608 z"
     inkscape:transform-center-x="0.2281588"
     inkscape:transform-center-y="-1.6850066"
     transform="translate(-1.233328,-0.61162598)" /><path
     sodipodi:type="star"
     style="opacity:1;fill:#3e3e3e;stroke-width:2.351;stroke-linejoin:round;stroke-miterlimit:10.4;fill-opacity:1"
     id="path2"
     inkscape:flatsided="true"
     sodipodi:sides="13"
     sodipodi:cx="173.70879"
     sodipodi:cy="181.64259"
     sodipodi:r1="98.963898"
     sodipodi:r2="96.088188"
     sodipodi:arg1="-1.5707963"
     sodipodi:arg2="-1.3291354"
     inkscape:rounded="0"
     inkscape:randomized="0"
     d="m 173.70879,82.678696 45.99081,11.335719 35.45488,31.410275 16.79665,44.28913 -5.70949,47.02186 -26.90765,38.98246 -41.9416,22.01264 -47.36722,0 -41.94159,-22.01265 -26.907647,-38.98246 -5.709486,-47.02186 16.796649,-44.28912 35.454874,-31.410277 z"
     inkscape:transform-center-y="-1.3719025"
     transform="matrix(0.95413133,0,0,0.95413133,7.7590052,1.6269647)" /><circle
     cx="226.39616"
     cy="75.075813"
     r="11.283924"
     id="circle1"
     inkscape:label="circle1"
     style="stroke-width:1.41049;stroke:#ffffff;stroke-opacity:1" /><circle
     cx="266.38416"
     cy="110.58417"
     r="11.283924"
     id="circle1-2"
     inkscape:label="circle1"
     style="stroke-width:1.41049;stroke:#ffffff;stroke-opacity:1" /><circle
     cx="285.48416"
     cy="161.28392"
     r="11.283924"
     id="circle1-8"
     inkscape:label="circle1"
     style="stroke-width:1.41049;stroke:#ffffff;stroke-opacity:1" /><circle
     cx="279.08417"
     cy="214.28392"
     r="11.283924"
     id="circle1-0"
     inkscape:label="circle1"
     style="stroke-width:1.41049;stroke:#ffffff;stroke-opacity:1" /><circle
     cx="248.78416"
     cy="258.48416"
     r="11.283924"
     id="circle1-9"
     inkscape:label="circle1"
     style="stroke-width:1.41049;stroke:#ffffff;stroke-opacity:1" /><circle
     cx="201.08417"
     cy="283.28394"
     r="11.283924"
     id="circle1-3"
     inkscape:label="circle1"
     style="stroke-width:1.41049;stroke:#ffffff;stroke-opacity:1" /><circle
     cx="146.68417"
     cy="283.28394"
     r="11.283924"
     id="circle1-00"
     inkscape:label="circle1"
     style="stroke-width:1.41049;stroke:#ffffff;stroke-opacity:1" /><circle
     cx="99.28392"
     cy="258.28394"
     r="11.283924"
     id="circle1-25"
     inkscape:label="circle1"
     style="stroke-width:1.41049;stroke:#ffffff;stroke-opacity:1" /><circle
     cx="68.984169"
     cy="214.28392"
     r="11.283924"
     id="circle1-94"
     inkscape:label="circle1"
     style="stroke-width:1.41049;stroke:#ffffff;stroke-opacity:1" /><circle
     cx="62.283924"
     cy="161.28392"
     r="11.283924"
     id="circle1-01"
     inkscape:label="circle1"
     style="stroke-width:1.41049;stroke:#ffffff;stroke-opacity:1" /><circle
     cx="81.28392"
     cy="110.38417"
     r="11.283924"
     id="circle1-1"
     inkscape:label="circle1"
     style="stroke-width:1.41049;stroke:#ffffff;stroke-opacity:1" /><circle
     cx="121.88417"
     cy="75.084167"
     r="11.283924"
     id="circle1-37"
     inkscape:label="circle1"
     style="stroke-width:1.41049;stroke:#ffffff;stroke-opacity:1" /><circle
     cx="173.98418"
     cy="62.283924"
     r="11.283924"
     id="circle1-05"
     inkscape:label="circle1"
     style="stroke-width:1.41049;stroke:#ffffff;stroke-opacity:1" /><rect
     style="display:inline;fill:#000000;fill-opacity:1;stroke-width:1.651;stroke-linejoin:round;stroke-miterlimit:10.4;stroke-dasharray:none;stroke:#ffffff;stroke-opacity:1"
     id="rect2"
     width="85.627144"
     height="25.09761"
     x="130.68643"
     y="144.9512" /><rect
     style="fill:#000000;stroke-width:1.634;stroke-linejoin:round;stroke-miterlimit:10.4;stroke-dasharray:none;fill-opacity:1;stroke:#ffffff;stroke-opacity:1"
     id="rect2-8"
     width="32.800678"
     height="25.714293"
     x="157.09966"
     y="178.69165" /><path
     sodipodi:type="star"
     style="fill:#ffffff;stroke-width:1.651;stroke-linejoin:round;stroke-miterlimit:10.4;stroke-dasharray:none;font-variation-settings:normal;opacity:1;vector-effect:none;fill-opacity:1;stroke:#ffffff;stroke-linecap:butt;stroke-dashoffset:0;stroke-opacity:1;-inkscape-stroke:none;stop-color:#000000;stop-opacity:1"
     id="path3"
     inkscape:flatsided="true"
     sodipodi:sides="3"
     sodipodi:cx="144.53271"
     sodipodi:cy="190.74184"
     sodipodi:r1="13.152601"
     sodipodi:r2="6.5763006"
     sodipodi:arg1="-3.1415927"
     sodipodi:arg2="-2.0943951"
     inkscape:rounded="0"
     inkscape:randomized="0"
     d="m 131.38011,190.74184 19.7289,-11.39049 10e-6,22.78097 z"
     inkscape:transform-center-x="3.2881503"
     transform="translate(0.49980469)" /><path
     sodipodi:type="star"
     style="font-variation-settings:normal;vector-effect:none;fill:#ffffff;fill-opacity:1;stroke:#ffffff;stroke-width:1.651;stroke-linecap:butt;stroke-linejoin:round;stroke-miterlimit:10.4;stroke-dasharray:none;stroke-dashoffset:0;stroke-opacity:1;-inkscape-stroke:none;stop-color:#000000"
     id="path3-3"
     inkscape:flatsided="true"
     sodipodi:sides="3"
     sodipodi:cx="144.53271"
     sodipodi:cy="190.74184"
     sodipodi:r1="13.152601"
     sodipodi:r2="6.5763006"
     sodipodi:arg1="-3.1415927"
     sodipodi:arg2="-2.0943951"
     inkscape:rounded="0"
     inkscape:randomized="0"
     d="m 131.38011,190.74184 19.7289,-11.39049 10e-6,22.78097 z"
     inkscape:transform-center-x="-3.2881551"
     transform="matrix(-1,0,0,1,346.30652,-0.02590984)" /><path
     d="m 149.19047,157.67019 q 0,1.56633 -0.31327,2.86117 -0.31327,1.2844 -0.95024,2.21375 -0.63698,0.91892 -1.58722,1.43059 -0.93981,0.50123 -2.21376,0.50123 -1.09643,0 -1.99447,-0.40725 -0.89803,-0.41769 -1.535,-1.27395 -0.63698,-0.85627 -0.98157,-2.18243 -0.3446,-1.32616 -0.3446,-3.14311 0,-1.56634 0.31327,-2.86118 0.32371,-1.29483 0.95024,-2.21375 0.63698,-0.92936 1.58722,-1.43059 0.95025,-0.51167 2.21376,-0.51167 1.09643,0 1.99446,0.41769 0.89804,0.40725 1.53501,1.27396 0.63698,0.85626 0.98157,2.18242 0.3446,1.32617 0.3446,3.14312 z m -1.83784,0.0627 q 0,-0.35504 -0.0313,-0.69963 -0.0209,-0.35503 -0.0522,-0.68919 l -5.77456,4.29176 q 0.15663,0.543 0.3968,1.00246 0.24017,0.45946 0.57433,0.79361 0.34459,0.32371 0.77272,0.51167 0.43858,0.17751 0.99201,0.17751 0.71008,0 1.2844,-0.34459 0.58476,-0.34459 0.99201,-1.02334 0.40725,-0.67874 0.62654,-1.6812 0.21928,-1.0129 0.21928,-2.33906 z m -6.24445,-0.12531 q 0,0.32371 0,0.64742 0.0104,0.32371 0.0418,0.62654 l 5.77456,-4.27088 q -0.15663,-0.53255 -0.3968,-0.97113 -0.24018,-0.43857 -0.57433,-0.75184 -0.33415,-0.32371 -0.76228,-0.50122 -0.42813,-0.17752 -0.96069,-0.17752 -0.71007,0 -1.29483,0.34459 -0.57433,0.3446 -0.98157,1.03378 -0.40725,0.67875 -0.62654,1.69165 -0.21928,1.00245 -0.21928,2.32861 z m 19.84025,0.0627 q 0,1.56633 -0.31327,2.86117 -0.31327,1.2844 -0.95025,2.21375 -0.63697,0.91892 -1.58722,1.43059 -0.9398,0.50123 -2.21375,0.50123 -1.09643,0 -1.99447,-0.40725 -0.89803,-0.41769 -1.53501,-1.27395 -0.63697,-0.85627 -0.98157,-2.18243 -0.34459,-1.32616 -0.34459,-3.14311 0,-1.56634 0.31327,-2.86118 0.32371,-1.29483 0.95024,-2.21375 0.63698,-0.92936 1.58722,-1.43059 0.95024,-0.51167 2.21376,-0.51167 1.09643,0 1.99446,0.41769 0.89803,0.40725 1.53501,1.27396 0.63698,0.85626 0.98157,2.18242 0.3446,1.32617 0.3446,3.14312 z m -1.83784,0.0627 q 0,-0.35504 -0.0313,-0.69963 -0.0209,-0.35503 -0.0522,-0.68919 l -5.77455,4.29176 q 0.15663,0.543 0.3968,1.00246 0.24017,0.45946 0.57432,0.79361 0.3446,0.32371 0.77273,0.51167 0.43857,0.17751 0.99201,0.17751 0.71007,0 1.2844,-0.34459 0.58476,-0.34459 0.99201,-1.02334 0.40725,-0.67874 0.62653,-1.6812 0.21929,-1.0129 0.21929,-2.33906 z m -6.24446,-0.12531 q 0,0.32371 0,0.64742 0.0104,0.32371 0.0418,0.62654 l 5.77456,-4.27088 q -0.15663,-0.53255 -0.39681,-0.97113 -0.24017,-0.43857 -0.57432,-0.75184 -0.33415,-0.32371 -0.76228,-0.50122 -0.42813,-0.17752 -0.96069,-0.17752 -0.71007,0 -1.29483,0.34459 -0.57433,0.3446 -0.98157,1.03378 -0.40725,0.67875 -0.62654,1.69165 -0.21929,1.00245 -0.21929,2.32861 z m 19.84025,0.0627 q 0,1.56633 -0.31326,2.86117 -0.31327,1.2844 -0.95025,2.21375 -0.63697,0.91892 -1.58722,1.43059 -0.9398,0.50123 -2.21375,0.50123 -1.09644,0 -1.99447,-0.40725 -0.89803,-0.41769 -1.53501,-1.27395 -0.63697,-0.85627 -0.98157,-2.18243 -0.34459,-1.32616 -0.34459,-3.14311 0,-1.56634 0.31327,-2.86118 0.32371,-1.29483 0.95024,-2.21375 0.63698,-0.92936 1.58722,-1.43059 0.95024,-0.51167 2.21375,-0.51167 1.09644,0 1.99447,0.41769 0.89803,0.40725 1.53501,1.27396 0.63698,0.85626 0.98157,2.18242 0.34459,1.32617 0.34459,3.14312 z m -1.83783,0.0627 q 0,-0.35504 -0.0313,-0.69963 -0.0209,-0.35503 -0.0522,-0.68919 l -5.77455,4.29176 q 0.15663,0.543 0.3968,1.00246 0.24017,0.45946 0.57432,0.79361 0.3446,0.32371 0.77273,0.51167 0.43857,0.17751 0.99201,0.17751 0.71007,0 1.2844,-0.34459 0.58476,-0.34459 0.99201,-1.02334 0.40725,-0.67874 0.62653,-1.6812 0.21929,-1.0129 0.21929,-2.33906 z m -6.24446,-0.12531 q 0,0.32371 0,0.64742 0.0104,0.32371 0.0418,0.62654 l 5.77456,-4.27088 q -0.15664,-0.53255 -0.39681,-0.97113 -0.24017,-0.43857 -0.57432,-0.75184 -0.33415,-0.32371 -0.76228,-0.50122 -0.42813,-0.17752 -0.96069,-0.17752 -0.71007,0 -1.29484,0.34459 -0.57432,0.3446 -0.98157,1.03378 -0.40724,0.67875 -0.62653,1.69165 -0.21929,1.00245 -0.21929,2.32861 z m 19.45389,-5.30465 -6.96497,10.45268 h 7.10072 v 1.73341 h -9.42934 v -1.38882 l 7.00674,-10.56754 h -6.81878 v -1.69165 h 9.10563 z m 11.75796,0 -6.96497,10.45268 h 7.10072 v 1.73341 h -9.42934 v -1.38882 l 7.00674,-10.56754 h -6.81878 v -1.69165 h 9.10563 z m 11.75795,0 -6.96497,10.45268 h 7.10072 v 1.73341 h -9.42934 v -1.38882 l 7.00675,-10.56754 h -6.81879 v -1.69165 h 9.10563 z"
     id="text3"
     style="font-size:21.3857px;font-family:Consolas;-inkscape-font-specification:Consolas;fill:#ffffff;stroke:#ffffff;stroke-width:0;stroke-linejoin:round;stroke-miterlimit:10.4"
     aria-label="000ZZZ" /><path
     d="m 178.46006,191.01719 q 0,1.56633 -0.31327,2.86117 -0.31327,1.2844 -0.95024,2.21375 -0.63698,0.91892 -1.58722,1.43059 -0.9398,0.50123 -2.21376,0.50123 -1.09643,0 -1.99446,-0.40725 -0.89804,-0.41769 -1.53501,-1.27395 -0.63698,-0.85627 -0.98157,-2.18243 -0.3446,-1.32616 -0.3446,-3.14311 0,-1.56634 0.31327,-2.86118 0.32371,-1.29483 0.95024,-2.21375 0.63698,-0.92936 1.58722,-1.43059 Q 172.34091,184 173.60442,184 q 1.09643,0 1.99447,0.41769 0.89803,0.40725 1.535,1.27396 0.63698,0.85626 0.98158,2.18242 0.34459,1.32617 0.34459,3.14312 z m -1.83783,0.0626 q 0,-0.35503 -0.0313,-0.69963 -0.0209,-0.35503 -0.0522,-0.68919 l -5.77456,4.29176 q 0.15663,0.543 0.39681,1.00246 0.24017,0.45946 0.57432,0.79361 0.34459,0.32371 0.77272,0.51167 0.43858,0.17752 0.99202,0.17752 0.71007,0 1.28439,-0.3446 0.58477,-0.34459 0.99201,-1.02334 0.40725,-0.67874 0.62654,-1.6812 0.21929,-1.01289 0.21929,-2.33906 z m -6.24446,-0.12531 q 0,0.32371 0,0.64742 0.0104,0.32371 0.0418,0.62654 l 5.77455,-4.27088 q -0.15663,-0.53255 -0.3968,-0.97113 -0.24017,-0.43857 -0.57432,-0.75184 -0.33416,-0.32371 -0.76229,-0.50122 -0.42813,-0.17752 -0.96068,-0.17752 -0.71008,0 -1.29484,0.34459 -0.57432,0.3446 -0.98157,1.03378 -0.40725,0.67875 -0.62654,1.69165 -0.21928,1.00245 -0.21928,2.32861 z"
     id="text3-7"
     style="font-size:21.3857px;font-family:Consolas;-inkscape-font-specification:Consolas;fill:#ffffff;stroke:#ffffff;stroke-width:0;stroke-linejoin:round;stroke-miterlimit:10.4"
     aria-label="0" /></svg>
